<svg data-v-0dd9719b="" version="1.0" xmlns="http://www.w3.org/2000/svg" xmlns:xlink="http://www.w3.org/1999/xlink" width="100%" height="100%" viewBox="0 0 340.000000 250.000000" preserveAspectRatio="xMidYMid meet" color-interpolation-filters="sRGB" style="margin: auto;"> <rect data-v-0dd9719b="" x="0" y="0" width="100%" height="100%" fill="#ffffff" fill-opacity="1" class="background"></rect> <rect data-v-0dd9719b="" x="0" y="0" width="100%" height="100%" fill="url(#watermark)" fill-opacity="1" class="watermarklayer"></rect> <g data-v-0dd9719b="" fill="#4cf37b" class="icon-text-wrapper icon-svg-group iconsvg" transform="translate(56.60499572753906,95.01529121398926)"><g class="iconsvg-imagesvg" transform="translate(0,0)" mask="url(#ff30a4f3-66b8-43de-ac08-ef45d3b34189)"><g><rect fill="#4cf37b" fill-opacity="0" stroke-width="2" x="0" y="0" width="60" height="59.969415598044996" class="image-rect"></rect> <svg filter="url(#colors1641860443)" x="0" y="0" width="60" height="59.969415598044996" filtersec="colorsf4472723371" class="image-svg-svg primary" style="overflow: visible;"><svg xmlns="http://www.w3.org/2000/svg" viewBox="0.00007552659371867776 -0.000003422448116907617 78.99992370605469 78.95999908447266"><defs><linearGradient id="aaad16de1-48f8-422d-a9df-80624213a2c4" x1="12.4" y1="12.4" x2="63.96" y2="63.96" gradientUnits="userSpaceOnUse"><stop offset="0" stop-color="#08adf8"></stop><stop offset="1" stop-color="#4700fc"></stop></linearGradient><linearGradient id="b33707dd6-e725-41a9-9ff8-83c798b6eb6c" x1="24.73" y1=".08" x2="76.29" y2="51.64" gradientUnits="userSpaceOnUse"><stop offset="0" stop-color="#08adf8"></stop><stop offset="1" stop-color="#4700fc"></stop></linearGradient></defs><g><g><path d="M64.13 63.58a23.91 23.91 0 0 0 7.51-1.2 39.48 39.48 0 1 1 0-45.8 24.1 24.1 0 1 0-7.51 47z"></path><path d="M79 39.48a14.83 14.83 0 1 1-14.87-14.83A14.83 14.83 0 0 1 79 39.48z"></path><path d="M79 39.48a14.83 14.83 0 1 1-14.87-14.83A14.83 14.83 0 0 1 79 39.48z"></path><path d="M79 39.48a14.83 14.83 0 1 1-14.87-14.83A14.83 14.83 0 0 1 79 39.48z"></path></g></g></svg></svg> <defs><filter id="colors1641860443"><feColorMatrix type="matrix" values="0 0 0 0 0.296875  0 0 0 0 0.94921875  0 0 0 0 0.48046875  0 0 0 1 0" class="icon-fecolormatrix"></feColorMatrix></filter> <filter id="colorsf4472723371"><feColorMatrix type="matrix" values="0 0 0 0 0.99609375  0 0 0 0 0.99609375  0 0 0 0 0.99609375  0 0 0 1 0" class="icon-fecolormatrix"></feColorMatrix></filter> <filter id="colorsb4109739296"><feColorMatrix type="matrix" values="0 0 0 0 0  0 0 0 0 0  0 0 0 0 0  0 0 0 1 0" class="icon-fecolormatrix"></feColorMatrix></filter></defs></g><rect v-gra="id" width="72" height="71.96941757202148" transform="translate(-6, -6)" style="pointer-events:none;" fill="url(#U-ZtEZJ575pa85BX5TGEK)"></rect></g> <g transform="translate(67,0.6484584808349609)"><g data-gra="path-name" fill-rule="" class="tp-name iconsvg-namesvg" transform="translate(0,0)" fill="url(#c7a0c375-0949-43a6-8d7b-afd687fec24d)"><g transform="scale(1)"><g><path d="M10.63 4.61L10.9 4.88Q16.83 1.14 19.2-4.88 21.58-10.9 21.88-18.81L21.88-18.81 25.18-18.81Q25.14-17.4 25.11-14.5 25.09-11.6 24.96-8.53L24.96-8.53Q24.87-5.58 24.52-2.94 24.17-0.31 23.42 0L23.42 0 21.45 0.04Q19.69-0.04 18.15 0L18.15 0 18.15 0.57Q21.01 0.83 22.1 3.74L22.1 3.74Q22.19 4.75 22.85 4.7L22.85 4.7Q25.66 5.23 27.51 2.86L27.51 2.86Q28.3 0.4 28.63-6.66 28.96-13.71 29.05-20.92L29.05-20.92 30.23-23.29 26.32-24.08 24.92-21.62 22.15-21.62Q22.15-23.73 22.32-25.84L22.32-25.84 18.5-25.84Q18.33-23.73 18.24-21.62L18.24-21.62 11.21-21.62 11.21-18.81 18.11-18.81Q17.8-12.22 16.13-6.24 14.46-0.26 10.63 4.61L10.63 4.61ZM11.6-4.92L11.6-4.92Q13.18-4.22 14-6.15 14.81-8.09 14.63-10.99L14.63-10.99Q14.5-13.45 13.67-16L13.67-16 13.32-16Q12.83-12.48 11.78-10.63L11.78-10.63Q10.77-8.75 10.63-7.03L10.63-7.03Q10.55-5.41 11.6-4.92L11.6-4.92ZM32.56-3.34L32.56-3.34Q35.29-2.68 34.8-7.29L34.8-7.29Q33.88-12.44 29.71-16.44L29.71-16.44 29.4-16Q30.45-13.32 30.81-9.93L30.81-9.93 31.25-5.98Q31.42-3.96 32.56-3.34L32.56-3.34ZM15.42-30.06L15.42-26.89 19.29-26.89 19.29-30.06 25.53-30.06 25.53-27.25 29.4-27.25 29.4-30.06 34.19-30.06 34.19-33.22 29.4-33.22 29.4-37.09 25.53-37.09 25.53-33.22 19.29-33.22 19.29-37.09 15.42-37.09 15.42-33.22 10.28-33.22 10.28-30.06 15.42-30.06ZM55.02 5.32L55.28 5.58Q63.72-1.49 63.46-14.77L63.46-14.77 63.46-26.28Q63.68-25.84 63.98-23.99L63.98-23.99Q63.94-22.24 64.07-20.3 64.2-18.37 65.21-17.4L65.21-17.4Q67.5-17.49 67.1-20.92L67.1-20.92Q66.4-24.74 63.46-27.25L63.46-27.25 63.46-37.44 59.5-37.44 59.5-14.41Q59.81-2.42 55.02 5.32L55.02 5.32ZM55.55-15.82L55.55-15.82Q57.26-15.12 58.1-16.55 58.93-17.97 58.67-20.57L58.67-20.57Q57.96-24.21 56.69-27.6L56.69-27.6 56.43-27.6Q56.47-25.18 56.03-22.9L56.03-22.9Q55.59-20.61 55.2-18.46L55.2-18.46Q54.98-17.4 55.55-15.82L55.55-15.82ZM67.37-36.65L67.37 3.65 70.97 3.65 70.97-24.61Q71.5-22.5 71.72-20.21L71.72-20.21Q71.94-17.89 72.86-17.23L72.86-17.23Q75.32-16.83 75.1-20.57L75.1-20.57Q74.71-23.64 70.97-25.93L70.97-25.93 70.97-36.65 67.37-36.65ZM75.45-37.44L75.45 5.93 79.45 5.93 79.45-37.44 75.45-37.44ZM112.41 5.58L116.32 5.58Q119.05 5.67 121.25 4.37 123.44 3.08 124.5-0.18L124.5-0.18Q122.56-1.67 122.81-3.21 123.05-4.75 124.23-7.21L124.23-7.21 123.93-7.56Q122.74-4.92 121.14-2.46 119.53 0 117.6 0.4L117.6 0.4 109.86 0.4Q108.28 0.7 108.19-1.14L108.19-1.14 108.19-18.46 116.98-18.46 116.98-11.78Q116.98-10.72 115.71-10.72L115.71-10.72 110.7-10.72 110.7-10.37Q114.21-9.89 114.21-7.82L114.21-7.82Q114.21-6.46 115.36-6.5L115.36-6.5Q116.98-6.28 118.72-7.16 120.45-8.04 120.76-11.16L120.76-11.16 120.76-20.13 122.26-22.15 118.08-23.73 116.63-21.27 108.19-21.27 108.19-23.03 104.59-23.03 104.59-0.26Q104.85 3.47 107.16 4.64 109.47 5.8 112.41 5.58L112.41 5.58ZM100.11-23.03L100.33-22.68Q104.37-23.69 107.69-26.94 111.01-30.19 113.16-34.89L113.16-34.89Q114.79-30.72 117.51-27.51 120.23-24.3 123.71-23.03L123.71-23.03Q122.43-26.15 125.33-28.3L125.33-28.3Q118.65-29.84 113.82-36.74L113.82-36.74Q113.99-36.96 114.08-37.44L114.08-37.44 109.12-37.44Q106.3-28.7 100.11-23.03L100.11-23.03ZM147.48-35.68L147.48-19.16 151.13-19.16 151.13-20.92 164-20.92 164-19.51 167.87-19.51 167.87-33.05Q168.09-33.88 168.79-35.24L168.79-35.24 164.84-37.09 163.39-34.98 158.38-34.98 158.38-32.17 164-32.17 164-29.36 159.21-29.36 159.21-26.81 164-26.81 164-23.73 151.13-23.73 151.13-26.81 156.97-26.81 156.97-29.36 151.13-29.36 151.13-31.82Q155.04-31.95 157.81-34.63L157.81-34.63Q155.65-35.24 154.42-37.79L154.42-37.79Q152.84-35.02 151.22-33.22L151.22-33.22 151.22-35.68 147.48-35.68ZM146.87 5.32L146.87 5.32Q151.88 2.86 155-3.34L155-3.34 155-3.96Q152.8-2.07 150.51-1.05L150.51-1.05 150.51-18.11 147.13-18.11 147.13 0.04Q146.6 0.26 145.99 0.4L145.99 0.4Q146.6 2.99 146.87 5.32L146.87 5.32ZM153.9-5.1L153.9-5.1Q154.95-5.01 154.78-7.29L154.78-7.29Q153.98-9.62 151.61-10.2L151.61-10.2 151.57-9.76Q152.45-8.53 152.58-6.9L152.58-6.9Q152.67-5.23 153.9-5.1L153.9-5.1ZM155.57 5.32L155.57 5.32Q159.92 2.72 162.86-2.11L162.86-2.11 162.6-2.55Q160.62-1.27 158.86-0.53L158.86-0.53 158.86-17.75 155.57-17.75 155.57 0.57 154.42 0.83Q155.04 3.16 155.57 5.32L155.57 5.32ZM154.6-11.34L154.6-11.34Q155.17-12.26 155-12.92L155-12.92Q154.82-14.24 153.72-14.94 152.62-15.64 151.35-15.91L151.35-15.91 151.22-15.56Q152.23-14.41 153.24-11.95L153.24-11.95Q153.63-10.9 154.6-11.34L154.6-11.34ZM161.76-5.01L161.76-5.01Q162.77-4.92 162.69-7.21L162.69-7.21Q161.85-9.54 159.52-10.11L159.52-10.11 159.43-9.67Q160.36-8.44 160.4-6.81L160.4-6.81Q160.53-5.14 161.76-5.01L161.76-5.01ZM166.82 4.97L166.82 4.97Q168.05 4.75 168.99 3.58 169.94 2.42 169.89 1.36L169.89 1.36Q168.84 0.18 169.1-1.1 169.37-2.37 170.07-4.39L170.07-4.39 169.63-4.57Q168.88-1.85 167.87-0.18L167.87-0.18Q166.9 0.7 166.9-0.7L166.9-0.7 166.9-17.75 163.17-17.75 163.17 1.98Q163.08 5.67 166.82 4.97L166.82 4.97ZM161.67-10.9L161.67-10.9Q162.69-10.81 162.6-13.1L162.6-13.1Q161.76-15.42 159.43-16L159.43-16 159.35-15.56Q160.27-14.33 160.36-12.7L160.36-12.7Q160.44-11.03 161.67-10.9L161.67-10.9Z" transform="translate(-10.279999732971191, 37.790000915527344)"></path></g> <!----> <!----> <!----> <!----> <!----> <!----> <!----></g></g> <g data-gra="path-slogan" fill-rule="" class="tp-slogan iconsvg-slogansvg" fill="#0a0619" transform="translate(24.324180603027344,49.720001220703125)"><!----> <!----> <g transform="scale(1, 1)"><g transform="scale(1)"><path d="M7.17-6.09L7.17-6.09L6.09-6.09Q6-7.73 3.94-7.83L3.94-7.83Q2.02-7.78 2.02-6.33L2.02-6.33Q2.02-5.39 3.05-5.25L3.05-5.25L5.48-4.69Q7.41-4.22 7.41-2.34L7.41-2.34Q7.36 0.05 4.03 0.14L4.03 0.14Q2.20 0.14 1.45-0.61L1.45-0.61Q0.52-1.31 0.56-2.77L0.56-2.77L1.69-2.77Q1.73-0.80 4.03-0.75L4.03-0.75Q6.28-0.80 6.33-2.20L6.33-2.20Q6.52-3.38 4.45-3.75L4.45-3.75L2.67-4.13Q0.84-4.64 0.84-6.19L0.84-6.19Q0.98-8.72 3.84-8.81L3.84-8.81Q7.08-8.81 7.17-6.09ZM14.53-3.19L14.53-8.58L15.70-8.58L15.70-3.05Q15.56 0.05 12.19 0.14L12.19 0.14Q9.05 0.05 8.91-2.86L8.91-2.86L8.91-8.58L10.08-8.58L10.08-3.19Q10.13-0.84 12.23-0.80L12.23-0.80Q14.53-0.84 14.53-3.19L14.53-3.19ZM18.33-1.03L23.63-1.03L23.63 0L16.88 0L16.88-0.94L22.13-7.59L17.25-7.59L17.25-8.58L23.63-8.58L23.63-7.59L18.33-1.03ZM25.92-5.06L30.42-5.06L30.42-8.58L31.59-8.58L31.59 0L30.42 0L30.42-3.98L25.92-3.98L25.92 0L24.75 0L24.75-8.58L25.92-8.58L25.92-5.06ZM40.17-4.27L40.17-4.27Q39.98-7.64 37.17-7.83L37.17-7.83Q34.31-7.69 34.17-4.27L34.17-4.27Q34.31-0.94 37.17-0.80L37.17-0.80Q39.98-0.98 40.17-4.27ZM41.34-4.27L41.34-4.27Q41.06 0 37.17 0.14L37.17 0.14Q33.23 0 32.95-4.27L32.95-4.27Q33.19-8.72 37.17-8.81L37.17-8.81Q41.06-8.67 41.34-4.27ZM48.38-3.19L48.38-8.58L49.55-8.58L49.55-3.05Q49.41 0.05 46.03 0.14L46.03 0.14Q42.89 0.05 42.75-2.86L42.75-2.86L42.75-8.58L43.92-8.58L43.92-3.19Q43.97-0.84 46.08-0.80L46.08-0.80Q48.38-0.84 48.38-3.19L48.38-3.19ZM55.83-5.06L60.33-5.06L60.33-8.58L61.50-8.58L61.50 0L60.33 0L60.33-3.98L55.83-3.98L55.83 0L54.66 0L54.66-8.58L55.83-8.58L55.83-5.06ZM68.95 0L68.11-2.48L64.64-2.48L63.75 0L62.58 0L65.81-8.58L67.13-8.58L70.22 0L68.95 0ZM66.38-7.31L65.02-3.52L67.69-3.52L66.42-7.31L66.38-7.31ZM79.50-8.58L79.50 0L78.38 0L78.38-5.06Q78.38-5.77 78.38-7.22L78.38-7.22L75.94 0L74.77 0L72.38-7.22L72.33-7.22Q72.33-6.70 72.38-5.67L72.38-5.67Q72.38-5.16 72.38-5.06L72.38-5.06L72.38 0L71.20 0L71.20-8.58L72.89-8.58L75.38-1.31L77.81-8.58L79.50-8.58ZM87.47-6.09L87.47-6.09L86.39-6.09Q86.30-7.73 84.23-7.83L84.23-7.83Q82.31-7.78 82.31-6.33L82.31-6.33Q82.31-5.39 83.34-5.25L83.34-5.25L85.78-4.69Q87.70-4.22 87.70-2.34L87.70-2.34Q87.66 0.05 84.33 0.14L84.33 0.14Q82.50 0.14 81.75-0.61L81.75-0.61Q80.81-1.31 80.86-2.77L80.86-2.77L81.98-2.77Q82.03-0.80 84.33-0.75L84.33-0.75Q86.58-0.80 86.63-2.20L86.63-2.20Q86.81-3.38 84.75-3.75L84.75-3.75L82.97-4.13Q81.14-4.64 81.14-6.19L81.14-6.19Q81.28-8.72 84.14-8.81L84.14-8.81Q87.38-8.81 87.47-6.09ZM91.36-7.59L88.45-7.59L88.45-8.58L95.39-8.58L95.39-7.59L92.48-7.59L92.48 0L91.36 0L91.36-7.59ZM97.73-1.03L102.89-1.03L102.89 0L96.56 0L96.56-8.58L102.80-8.58L102.80-7.59L97.73-7.59L97.73-4.92L102.42-4.92L102.42-3.89L97.73-3.89L97.73-1.03ZM108.52-3.70L105.70-3.70L105.70 0L104.53 0L104.53-8.58L108.52-8.58Q111.38-8.58 111.38-6.28L111.38-6.28Q111.38-4.88 110.16-4.22L110.16-4.22Q111.19-3.94 111.19-2.58L111.19-2.58L111.28-1.03Q111.23-0.38 111.70-0.19L111.70-0.19L111.70 0L110.25 0Q110.11-0.61 110.06-2.16L110.06-2.16Q110.11-3.70 108.52-3.70L108.52-3.70ZM108.61-7.64L105.70-7.64L105.70-4.69L108.42-4.69Q110.16-4.69 110.16-6.19L110.16-6.19Q110.16-7.64 108.61-7.64L108.61-7.64Z" transform="translate(-0.5602678571428572, 8.8125)"></path></g></g></g></g></g><defs v-gra="od"><linearGradient x1="0" y1="1" x2="0" y2="0" id="c7a0c375-0949-43a6-8d7b-afd687fec24d"><stop offset="0%" stop-color="#4cf37b"></stop><stop offset="50%" stop-color="#2340fe"></stop><stop offset="100%" stop-color="#f001ff"></stop></linearGradient><filter id="42443b3f1de60f6b6fd3b6a9844b4764" filterUnits="objectBoundingBox"><feColorMatrix type="matrix" values="0 0 0 0 0.99609375  0 0 0 0 0.99609375  0 0 0 0 0.99609375  0 0 0 1 0"></feColorMatrix></filter></defs><defs v-gra="id"><filter id="e35ed320-523b-4736-abd5-b10df984d0dc" filterUnits="userSpaceOnUse"><feColorMatrix type="matrix" values="0 0 0 0 0.99609375  0 0 0 0 0.99609375  0 0 0 0 0.99609375  0 0 0 1 0"></feColorMatrix></filter><linearGradient x1="0" y1="1" x2="0" y2="0" id="U-ZtEZJ575pa85BX5TGEK"><stop offset="0%" stop-color="#4cf37b"></stop><stop offset="50%" stop-color="#2340fe"></stop><stop offset="100%" stop-color="#f001ff"></stop></linearGradient><filter id="42443b3f1de60f6b6fd3b6a9844b4764" filterUnits="objectBoundingBox"><feColorMatrix type="matrix" values="0 0 0 0 0.99609375  0 0 0 0 0.99609375  0 0 0 0 0.99609375  0 0 0 1 0"></feColorMatrix></filter></defs><mask v-gra="im" id="ff30a4f3-66b8-43de-ac08-ef45d3b34189"><g class="iconsvg-imagesvg" filter="url(#e35ed320-523b-4736-abd5-b10df984d0dc)"><g><rect fill="#4cf37b" fill-opacity="0" stroke-width="2" x="0" y="0" width="60" height="59.969415598044996" class="image-rect"></rect> <svg x="0" y="0" width="60" height="59.969415598044996" filtersec="colorsf4472723371" class="image-svg-svg primary" style="overflow: visible;"><svg xmlns="http://www.w3.org/2000/svg" viewBox="0.00007552659371867776 -0.000003422448116907617 78.99992370605469 78.95999908447266"><defs><linearGradient id="aaad16de1-48f8-422d-a9df-80624213a2c4" x1="12.4" y1="12.4" x2="63.96" y2="63.96" gradientUnits="userSpaceOnUse"><stop offset="0" stop-color="#08adf8"></stop><stop offset="1" stop-color="#4700fc"></stop></linearGradient><linearGradient id="b33707dd6-e725-41a9-9ff8-83c798b6eb6c" x1="24.73" y1=".08" x2="76.29" y2="51.64" gradientUnits="userSpaceOnUse"><stop offset="0" stop-color="#08adf8"></stop><stop offset="1" stop-color="#4700fc"></stop></linearGradient></defs><g><g><path d="M64.13 63.58a23.91 23.91 0 0 0 7.51-1.2 39.48 39.48 0 1 1 0-45.8 24.1 24.1 0 1 0-7.51 47z"></path><path d="M79 39.48a14.83 14.83 0 1 1-14.87-14.83A14.83 14.83 0 0 1 79 39.48z"></path><path d="M79 39.48a14.83 14.83 0 1 1-14.87-14.83A14.83 14.83 0 0 1 79 39.48z"></path><path d="M79 39.48a14.83 14.83 0 1 1-14.87-14.83A14.83 14.83 0 0 1 79 39.48z"></path></g></g></svg></svg> <defs><filter id="colors1641860443"><feColorMatrix type="matrix" values="0 0 0 0 0.296875  0 0 0 0 0.94921875  0 0 0 0 0.48046875  0 0 0 1 0" class="icon-fecolormatrix"></feColorMatrix></filter> <filter id="colorsf4472723371"><feColorMatrix type="matrix" values="0 0 0 0 0.99609375  0 0 0 0 0.99609375  0 0 0 0 0.99609375  0 0 0 1 0" class="icon-fecolormatrix"></feColorMatrix></filter> <filter id="colorsb4109739296"><feColorMatrix type="matrix" values="0 0 0 0 0  0 0 0 0 0  0 0 0 0 0  0 0 0 1 0" class="icon-fecolormatrix"></feColorMatrix></filter></defs></g></g></mask></svg>